<svg version="1.1" preserveAspectRatio="none" xmlns="http://www.w3.org/2000/svg" width="500" height="500" viewBox="0 0 500 500"><rect width="100%" height="100%" fill="#F5F5F5" fill-opacity="1"/><svg viewBox="57.5225 157.9999 384.6842 183" width="333" height="158.41305673588883" x="83.5px" y="170.7935px" xmlns="http://www.w3.org/2000/svg" xmlns:xlink="http://www.w3.org/1999/xlink" preserveAspectRatio="none"><defs></defs><style>.companyName {fill:#08376B;fill-opacity:1;}.icon1 {fill:#35C0ED;fill-opacity:1;}.icon2 {fill:#9AEBA6;fill-opacity:1;}.icon3 {fill:#2F90B0;fill-opacity:1;}.icon3-str {stroke:#2F90B0;stroke-opacity:1;}.shapeStroke-str {stroke:#08376B;stroke-opacity:1;}.text {fill:#08376B;fill-opacity:1;}</style><g opacity="1" transform="rotate(0 57.5225 172.9999)">
<svg width="148.2556" height="120" x="57.5225" y="172.9999" version="1.1" preserveAspectRatio="none" viewBox="55.482696533203125 99 456.4654541015625 369.46905517578125">
  <g transform="matrix(1 0 0 1 0 0)"><g><path d="M511.853 307.443c-.037-10.598-.082-21.243-.132-31.518-.203-42.153-.472-78.538-.476-78.941-.017-.348-.476-8.62-6.291-17.074-9.698-14.1-26.498-17.275-38.883-17.456v.001c-.921-.067-5.753-.162-35.774-.223v-1.147c.026-1.896-.812-5.488-4.149-5.646-.277-.044-.671-.051-1.277-.062-1.421-.024-4.089-.029-8.205-.012l-2.795.016c-3.848.022-7.12.054-7.17.056-1.35.08-3.915 1.434-3.969 5.979h.001c-.005.127-.01.356-.013.785l-38.146.033V100a1 1 0 0 0-1-1H200.569a1 1 0 0 0-1 1v62.377l-40.314.035v-1.327c.026-1.896-.812-5.488-4.149-5.646-.277-.044-.671-.051-1.277-.062-1.421-.024-4.089-.029-8.205-.012l-2.795.016c-3.848.022-7.119.054-7.169.056-1.35.08-3.916 1.434-3.969 5.979h.001c-.007.164-.012.484-.016 1.16-20.606.031-33.202-.047-33.294-.046-.818-.039-20.14-.662-32.669 11.379-6.762 6.497-10.191 15.449-10.193 26.605v.008l.002 206.544c-.047.785-1.012 19.354 10.231 31.284 5.979 6.344 14.288 9.561 24.697 9.561.079 0 .157-.01.233-.027 1.106-.112 11.299-.185 27.675-.229.347 11.541 8.656 20.814 18.845 20.814 10.205 0 18.523-9.3 18.847-20.865 69.861-.032 179.832.153 249.249.307h26.76c.462 11.421 8.72 20.558 18.833 20.558 10.114 0 18.372-9.137 18.833-20.559 2.215-.026 11.052-.39 20.111-4.358 9.515-4.167 20.94-13.236 21.408-32.782.237-.962.38-3.729.51-13.118.22-15.903.253-46.254.099-90.209zM404.728 161.517a.993.993 0 0 0 .004-.077c.044-3.748 2.024-3.998 2.038-4.004.001 0 3.269-.031 7.112-.054l2.841-.016c4.05-.017 6.704-.013 8.112.012.464.008.795.017.954.029a.956.956 0 0 0 .208.028c2.304.061 2.301 3.479 2.3 3.636v7.219c-.05 27.833-.061 34.029.055 35.574h-.055c0 1.005-.25 1.751-.744 2.217-.71.672-1.763.619-1.844.617h-18.634c-.576 0-1.027-.176-1.379-.536-.833-.855-.975-2.571-.958-3.19l-.029-35.066c.001-3.951.007-6.1.019-6.389zM201.569 101h161.005v13.163H201.569V101zm0 15.163h161.005v46.073l-161.005.139v-46.212zm-67.883 45.357c.002-.026.004-.054.004-.08.043-3.748 2.024-3.998 2.038-4.004.001 0 3.268-.031 7.111-.054l2.841-.016c4.051-.017 6.704-.013 8.112.012.464.008.795.017.954.029a.956.956 0 0 0 .208.028c2.304.061 2.301 3.479 2.3 3.636v7.219c-.049 27.858-.06 34.039.053 35.574h-.053c0 1.005-.25 1.751-.744 2.217-.711.672-1.763.619-1.844.617h-18.634c-.576 0-1.027-.176-1.379-.536-.833-.855-.975-2.571-.958-3.19l-.029-35.066c.001-1.798.003-5.971.02-6.386zm3.515 304.949c-9.092 0-16.507-8.379-16.846-18.819 9.484-.023 20.883-.038 33.693-.045-.318 10.461-7.742 18.864-16.847 18.864zm313.69 0c-9.015 0-16.381-8.239-16.834-18.558h33.668c-.453 10.318-7.819 18.558-16.834 18.558zm58.862-68.845c-.138 9.966-.326 12.119-.413 12.569a.99.99 0 0 0-.094.401c-.759 35.554-38.427 35.335-40.033 35.316h-63.914c-.785-.002-79.414-.175-157.129-.262-134.856-.147-154.56.039-157.722.348v-.086c-9.832 0-17.648-3.002-23.233-8.923-10.651-11.293-9.71-29.62-9.697-29.862V200.522c0-10.59 3.22-19.056 9.569-25.162 11.905-11.45 31.014-10.839 31.247-10.831.126.001 12.723.076 33.335.047a7720.9 7720.9 0 0 0-.003 3.33v.001l.03 35.033c-.01.302-.049 2.992 1.517 4.609.729.751 1.703 1.148 2.818 1.148l18.561-.003c.032.003.109.007.22.007.547 0 1.935-.111 3.048-1.145.925-.859 1.395-2.102 1.395-3.693 0-.033-.002-.066-.005-.1-.045-1.188-.012-25.962.005-35.473v-3.88l243.458-.211c-.001.913-.003 2.112-.003 3.706v.001l.03 35.033c-.01.302-.049 2.992 1.517 4.609.729.751 1.703 1.148 2.818 1.148l18.561-.003c.032.003.109.007.22.007.547 0 1.935-.111 3.048-1.145.925-.859 1.395-2.102 1.395-3.693 0-.033-.002-.067-.005-.101-.046-1.193-.012-25.963.005-35.472v-4.06c30.544.062 35.101.165 35.595.208.05.008.1.013.15.014 41.131.601 43.14 31.319 43.204 32.586.003.362.271 36.745.475 78.896.05 10.274.095 20.918.132 31.516.152 43.945.119 74.283-.102 90.175z" data-color="1" class="icon1"></path><path d="M368.312 273.482h-58.726v-59.706a1 1 0 0 0-1-1h-57.769a1 1 0 0 0-1 1v59.706h-58.726a1 1 0 0 0-1 1v57.768a1 1 0 0 0 1 1h58.726v57.747a1 1 0 0 0 1 1h57.769a1 1 0 0 0 1-1V333.25h58.726a1 1 0 0 0 1-1v-57.768a1 1 0 0 0-1-1zm-1 57.768h-58.726a1 1 0 0 0-1 1v57.747h-55.769V332.25a1 1 0 0 0-1-1h-58.726v-55.768h58.726a1 1 0 0 0 1-1v-59.706h55.769v59.706a1 1 0 0 0 1 1h58.726v55.768z" data-color="1" class="icon1"></path></g></g>
</svg>
</g><g opacity="1" transform="rotate(0 268.7781 172.9999)">
<svg width="173.4286" height="120" x="268.7781" y="172.9999" version="1.1" preserveAspectRatio="none" viewBox="1.48 -28.48 102.55999999999999 70.96000000000001">
  <g transform="matrix(1 0 0 1 0 0)" class="companyName"><path id="id-D6z1nYkh9" d="M4.20-7.08L1.48-7.08Q1.56-5.36 2.38-3.96Q3.20-2.56 4.62-1.58Q6.04-0.60 7.96-0.06Q9.88 0.48 12.16 0.48L12.16 0.48Q14.48 0.48 16.34-0.08Q18.20-0.64 19.52-1.68Q20.84-2.72 21.56-4.20Q22.28-5.68 22.28-7.48L22.28-7.48Q22.28-9.96 21.04-11.54Q19.80-13.12 17.94-14.18Q16.08-15.24 13.90-15.96Q11.72-16.68 9.86-17.48Q8-18.28 6.76-19.32Q5.52-20.36 5.52-22.08L5.52-22.08Q5.52-23.04 5.94-23.88Q6.36-24.72 7.18-25.34Q8-25.96 9.20-26.34Q10.40-26.72 11.96-26.72L11.96-26.72Q14.56-26.72 16.38-25.62Q18.20-24.52 18.52-22.16L18.52-22.16L21.24-22.16Q21-23.64 20.16-24.82Q19.32-26 18.04-26.82Q16.76-27.64 15.14-28.06Q13.52-28.48 11.76-28.48L11.76-28.48Q9.92-28.48 8.26-28Q6.60-27.52 5.34-26.60Q4.08-25.68 3.34-24.28Q2.60-22.88 2.60-21.08L2.60-21.08Q2.60-18.72 3.80-17.28Q5-15.84 6.82-14.88Q8.64-13.92 10.76-13.24Q12.88-12.56 14.70-11.70Q16.52-10.84 17.72-9.60Q18.92-8.36 18.92-6.28L18.92-6.28Q18.92-3.68 17.02-2.48Q15.12-1.28 11.96-1.28L11.96-1.28Q9.44-1.28 7.92-1.94Q6.40-2.60 5.60-3.52Q4.80-4.44 4.52-5.42Q4.24-6.40 4.20-7.08L4.20-7.08Z M28.20 0L31.60 0L31.60-11.40Q31.60-12.12 31.72-13.30Q31.84-14.48 32.34-15.62Q32.84-16.76 33.88-17.58Q34.92-18.40 36.80-18.40L36.80-18.40Q38.16-18.40 38.90-17.80Q39.64-17.20 40-16.32Q40.36-15.44 40.42-14.48Q40.48-13.52 40.48-12.80L40.48-12.80L40.48 0L43.88 0L43.88-11.40Q43.88-12.28 44.04-13.50Q44.20-14.72 44.72-15.80Q45.24-16.88 46.22-17.64Q47.20-18.40 48.88-18.40L48.88-18.40Q50.12-18.40 50.88-18.04Q51.64-17.68 52.06-16.96Q52.48-16.24 52.62-15.20Q52.76-14.16 52.76-12.80L52.76-12.80L52.76 0L56.16 0L56.16-13.96Q56.16-14.88 55.96-16.02Q55.76-17.16 55.10-18.14Q54.44-19.12 53.18-19.78Q51.92-20.44 49.84-20.44L49.84-20.44Q49.24-20.44 48.44-20.32Q47.64-20.20 46.76-19.80Q45.88-19.40 45.06-18.64Q44.24-17.88 43.64-16.64L43.64-16.64L43.36-16.64Q43.12-17.28 42.68-17.94Q42.24-18.60 41.56-19.16Q40.88-19.72 39.94-20.08Q39-20.44 37.68-20.44L37.68-20.44Q37.08-20.44 36.24-20.30Q35.40-20.16 34.56-19.76Q33.72-19.36 32.98-18.64Q32.24-17.92 31.76-16.76L31.76-16.76L31.60-16.76L31.60-20L28.20-20L28.20 0Z M67.24-20L63.84-20L63.84 0L67.24 0L67.24-20ZM63.36-26.32L63.36-26.32Q63.36-25.44 64-24.80Q64.64-24.16 65.52-24.16L65.52-24.16Q66.40-24.16 67.04-24.80Q67.68-25.44 67.68-26.32L67.68-26.32Q67.68-27.20 67.04-27.84Q66.40-28.48 65.52-28.48L65.52-28.48Q64.64-28.48 64-27.84Q63.36-27.20 63.36-26.32Z M79.08 0L79.08-28L75.68-28L75.68 0L79.08 0Z M88.84-9.12L104.04-9.12L104.04-9.96Q104.04-12.64 103.28-14.60Q102.52-16.56 101.22-17.84Q99.92-19.12 98.20-19.76Q96.48-20.40 94.56-20.40L94.56-20.40Q92.52-20.40 90.80-19.70Q89.08-19 87.80-17.66Q86.52-16.32 85.80-14.42Q85.08-12.52 85.08-10.12L85.08-10.12Q85.08-8.12 85.70-6.22Q86.32-4.32 87.58-2.82Q88.84-1.32 90.78-0.42Q92.72 0.48 95.36 0.48L95.36 0.48Q97.92 0.48 100.08-0.42Q102.24-1.32 103.84-3L103.84-3L102.56-4.28Q101.72-3.56 100.98-2.96Q100.24-2.36 99.48-1.96Q98.72-1.56 97.90-1.34Q97.08-1.12 96.08-1.12L96.08-1.12Q94.96-1.12 93.70-1.46Q92.44-1.80 91.36-2.68Q90.28-3.56 89.56-5.12Q88.84-6.68 88.84-9.12L88.84-9.12ZM100.56-10.72L88.84-10.72Q88.84-12.32 89.18-13.82Q89.52-15.32 90.22-16.48Q90.92-17.64 92.00-18.34Q93.08-19.04 94.56-19.04L94.56-19.04Q97.40-19.04 98.98-16.82Q100.56-14.60 100.56-10.72L100.56-10.72Z M19.56 42L1.48 42L1.48 14L5.12 14L5.12 39.80L19.56 39.80L19.56 42Z M31.32 21.56L31.32 21.56Q34.24 21.56 35.84 22.38Q37.44 23.20 38.18 24.52Q38.92 25.84 39.04 27.56Q39.16 29.28 39.16 31.08L39.16 31.08L39.16 42L35.92 42L35.92 40.04Q34.76 41.16 32.96 41.82Q31.16 42.48 29.36 42.48L29.36 42.48Q27.64 42.48 26.32 41.88Q25 41.28 24.12 40.32Q23.24 39.36 22.80 38.16Q22.36 36.96 22.36 35.72L22.36 35.72Q22.36 34.44 22.84 33.16Q23.32 31.88 24.28 30.86Q25.24 29.84 26.64 29.20Q28.04 28.56 29.84 28.56L29.84 28.56Q31.64 28.56 33.26 29.26Q34.88 29.96 35.92 31.24L35.92 31.24L35.92 29.52Q35.92 26.24 34.94 24.64Q33.96 23.04 31.36 23.04L31.36 23.04Q30.24 23.04 29.40 23.32Q28.56 23.60 27.90 24.10Q27.24 24.60 26.68 25.34Q26.12 26.08 25.56 27L25.56 27L23.48 24.92Q24.04 24.32 24.66 23.72Q25.28 23.12 26.18 22.64Q27.08 22.16 28.32 21.86Q29.56 21.56 31.32 21.56ZM35.92 37.16L35.92 34.08Q35.72 33.60 35.34 32.96Q34.96 32.32 34.36 31.72Q33.76 31.12 32.92 30.70Q32.08 30.28 30.92 30.28L30.92 30.28Q29.76 30.28 28.80 30.74Q27.84 31.20 27.18 31.94Q26.52 32.68 26.16 33.68Q25.80 34.68 25.80 35.76L25.80 35.76Q25.80 37.04 26.26 37.98Q26.72 38.92 27.44 39.58Q28.16 40.24 29.04 40.56Q29.92 40.88 30.72 40.88L30.72 40.88Q31.48 40.88 32.26 40.60Q33.04 40.32 33.74 39.82Q34.44 39.32 35 38.64Q35.56 37.96 35.92 37.16L35.92 37.16Z M45.56 42L45.56 14L48.96 14L48.96 25.28L49.12 25.28Q49.52 24.24 50.18 23.54Q50.84 22.84 51.68 22.40Q52.52 21.96 53.46 21.76Q54.40 21.56 55.36 21.56L55.36 21.56Q57.36 21.56 59.04 22.30Q60.72 23.04 61.94 24.40Q63.16 25.76 63.84 27.68Q64.52 29.60 64.52 31.96L64.52 31.96Q64.52 34.36 63.84 36.30Q63.16 38.24 61.94 39.62Q60.72 41 59.04 41.74Q57.36 42.48 55.36 42.48L55.36 42.48Q50.60 42.48 49.12 38.76L49.12 38.76L48.96 38.76L48.96 42L45.56 42ZM48.96 30.52L48.96 34Q48.96 35.32 49.38 36.50Q49.80 37.68 50.56 38.54Q51.32 39.40 52.34 39.90Q53.36 40.40 54.52 40.40L54.52 40.40Q55.76 40.40 56.90 39.94Q58.04 39.48 58.88 38.48Q59.72 37.48 60.22 35.88Q60.72 34.28 60.72 32.04L60.72 32.04Q60.72 29.76 60.22 28.16Q59.72 26.56 58.86 25.54Q58.00 24.52 56.88 24.06Q55.76 23.60 54.52 23.60L54.52 23.60Q53.40 23.60 52.40 24.06Q51.40 24.52 50.64 25.42Q49.88 26.32 49.42 27.60Q48.96 28.88 48.96 30.52L48.96 30.52Z M80.20 26.56L82.48 26.56Q82.48 25.48 81.92 24.56Q81.36 23.64 80.38 22.98Q79.40 22.32 78.10 21.94Q76.80 21.56 75.32 21.56L75.32 21.56Q73.92 21.56 72.70 21.92Q71.48 22.28 70.58 23Q69.68 23.72 69.16 24.78Q68.64 25.84 68.64 27.24L68.64 27.24Q68.64 29.16 69.52 30.28Q70.40 31.40 71.72 32.08Q73.04 32.76 74.58 33.18Q76.12 33.60 77.44 34.10Q78.76 34.60 79.64 35.36Q80.52 36.12 80.52 37.44L80.52 37.44Q80.52 38 80.34 38.60Q80.16 39.20 79.68 39.70Q79.20 40.20 78.36 40.54Q77.52 40.88 76.24 40.88L76.24 40.88Q74.64 40.88 73.54 40.38Q72.44 39.88 71.74 39.18Q71.04 38.48 70.74 37.76Q70.44 37.04 70.44 36.56L70.44 36.56L67.84 36.56Q67.84 37.68 68.36 38.74Q68.88 39.80 69.94 40.64Q71.00 41.48 72.54 41.98Q74.08 42.48 76.12 42.48L76.12 42.48Q79.80 42.48 81.66 40.86Q83.52 39.24 83.52 36.60L83.52 36.60Q83.52 34.68 82.62 33.52Q81.72 32.36 80.36 31.66Q79.00 30.96 77.42 30.52Q75.84 30.08 74.48 29.60Q73.12 29.12 72.22 28.44Q71.32 27.76 71.32 26.52L71.32 26.52Q71.32 26 71.52 25.42Q71.72 24.84 72.20 24.34Q72.68 23.84 73.48 23.50Q74.28 23.16 75.48 23.16L75.48 23.16Q76.68 23.16 77.56 23.50Q78.44 23.84 79.04 24.34Q79.64 24.84 79.92 25.44Q80.20 26.04 80.20 26.56L80.20 26.56Z"/></g>
</svg>
</g><g opacity="1" transform="rotate(0 235.7781 157.9999)">
<svg width="3" height="150" x="235.7781" y="157.9999" version="1.1" preserveAspectRatio="none" viewBox="0 0 3 150">
  <defs><rect x="0" y="0" width="3" height="150" rx="0px" ry="0px" id="id-tBXipXk0b1725273419999"></rect></defs><use class="companyName shapeStroke-str" style="stroke-width:0;" xlink:href="#id-tBXipXk0b1725273419999"></use>
</svg>
</g><g opacity="1" transform="rotate(0 95.8882 322.9999)">
<svg width="307.9529" height="18" x="95.8882" y="322.9999" version="1.1" preserveAspectRatio="none" viewBox="0.04 -29.68 511.99999999999994 29.92">
  <g transform="matrix(1 0 0 1 0 0)" class="text"><path id="id-D-YM9nyY423" d="M25.36-28L14.16-9.68L14.16 0L11.24 0L11.24-9.68L0.04-28L3.20-28L12.80-12.28L22.40-28L25.36-28Z M36.76 0.20Q33.72 0.20 31.28-1.18Q28.84-2.56 27.44-5Q26.04-7.44 26.04-10.52L26.04-10.52Q26.04-13.60 27.44-16.04Q28.84-18.48 31.28-19.84Q33.72-21.20 36.76-21.20L36.76-21.20Q39.80-21.20 42.24-19.84Q44.68-18.48 46.06-16.04Q47.44-13.60 47.44-10.52L47.44-10.52Q47.44-7.44 46.06-5Q44.68-2.56 42.24-1.18Q39.80 0.20 36.76 0.20L36.76 0.20ZM36.76-2.32Q39-2.32 40.78-3.34Q42.56-4.36 43.56-6.24Q44.56-8.12 44.56-10.52L44.56-10.52Q44.56-12.92 43.56-14.80Q42.56-16.68 40.78-17.70Q39-18.72 36.76-18.72L36.76-18.72Q34.52-18.72 32.74-17.70Q30.96-16.68 29.94-14.80Q28.92-12.92 28.92-10.52L28.92-10.52Q28.92-8.12 29.94-6.24Q30.96-4.36 32.74-3.34Q34.52-2.32 36.76-2.32L36.76-2.32Z M70.56-21.04L73.40-21.04L73.40 0L70.68 0L70.68-3.84Q69.56-1.92 67.60-0.86Q65.64 0.20 63.12 0.20L63.12 0.20Q59 0.20 56.62-2.10Q54.24-4.40 54.24-8.84L54.24-8.84L54.24-21.04L57.08-21.04L57.08-9.12Q57.08-5.80 58.72-4.08Q60.36-2.36 63.40-2.36L63.40-2.36Q66.72-2.36 68.64-4.38Q70.56-6.40 70.56-10L70.56-10L70.56-21.04Z M85.28-16.92Q86.28-19.04 88.26-20.12Q90.24-21.20 93.16-21.20L93.16-21.20L93.16-18.44L92.48-18.48Q89.16-18.48 87.28-16.44Q85.40-14.40 85.40-10.72L85.40-10.72L85.40 0L82.56 0L82.56-21.04L85.28-21.04L85.28-16.92Z M119.80 0.24Q116.68 0.24 113.82-0.76Q110.96-1.76 109.40-3.40L109.40-3.40L110.56-5.68Q112.08-4.16 114.60-3.22Q117.12-2.28 119.80-2.28L119.80-2.28Q123.56-2.28 125.44-3.66Q127.32-5.04 127.32-7.24L127.32-7.24Q127.32-8.92 126.30-9.92Q125.28-10.92 123.80-11.46Q122.32-12 119.68-12.64L119.68-12.64Q116.52-13.44 114.64-14.18Q112.76-14.92 111.42-16.44Q110.08-17.96 110.08-20.56L110.08-20.56Q110.08-22.68 111.20-24.42Q112.32-26.16 114.64-27.20Q116.96-28.24 120.40-28.24L120.40-28.24Q122.80-28.24 125.10-27.58Q127.40-26.92 129.08-25.76L129.08-25.76L128.08-23.40Q126.32-24.56 124.32-25.14Q122.32-25.72 120.40-25.72L120.40-25.72Q116.72-25.72 114.86-24.30Q113.00-22.88 113.00-20.64L113.00-20.64Q113.00-18.96 114.02-17.94Q115.04-16.92 116.58-16.38Q118.12-15.84 120.72-15.20L120.72-15.20Q123.80-14.44 125.70-13.70Q127.60-12.96 128.92-11.46Q130.24-9.96 130.24-7.40L130.24-7.40Q130.24-5.28 129.10-3.54Q127.96-1.80 125.60-0.78Q123.24 0.24 119.80 0.24L119.80 0.24Z M163.52-21.20Q167.48-21.20 169.74-18.92Q172.00-16.64 172.00-12.20L172.00-12.20L172.00 0L169.16 0L169.16-11.92Q169.16-15.20 167.58-16.92Q166.00-18.64 163.12-18.64L163.12-18.64Q159.84-18.64 157.96-16.62Q156.08-14.60 156.08-11.04L156.08-11.04L156.08 0L153.24 0L153.24-11.92Q153.24-15.20 151.66-16.92Q150.08-18.64 147.16-18.64L147.16-18.64Q143.92-18.64 142.02-16.62Q140.12-14.60 140.12-11.04L140.12-11.04L140.12 0L137.28 0L137.28-21.04L140.00-21.04L140.00-17.20Q141.12-19.12 143.12-20.16Q145.12-21.20 147.72-21.20L147.72-21.20Q150.36-21.20 152.30-20.08Q154.24-18.96 155.20-16.76L155.20-16.76Q156.36-18.84 158.54-20.02Q160.72-21.20 163.52-21.20L163.52-21.20Z M180.92 0L180.92-21.04L183.76-21.04L183.76 0L180.92 0ZM182.36-25.64Q181.48-25.64 180.88-26.24Q180.28-26.84 180.28-27.68L180.28-27.68Q180.28-28.48 180.88-29.08Q181.48-29.68 182.36-29.68L182.36-29.68Q183.24-29.68 183.84-29.10Q184.44-28.52 184.44-27.72L184.44-27.72Q184.44-26.84 183.84-26.24Q183.24-25.64 182.36-25.64L182.36-25.64Z M192.88 0L192.88-29.68L195.72-29.68L195.72 0L192.88 0Z M223.20-10.52L223.16-9.64L205.56-9.64Q205.80-6.36 208.08-4.34Q210.36-2.32 213.84-2.32L213.84-2.32Q215.80-2.32 217.44-3.02Q219.08-3.72 220.28-5.08L220.28-5.08L221.88-3.24Q220.48-1.56 218.38-0.68Q216.28 0.20 213.76 0.20L213.76 0.20Q210.52 0.20 208.02-1.18Q205.52-2.56 204.12-5Q202.72-7.44 202.72-10.52L202.72-10.52Q202.72-13.60 204.06-16.04Q205.40-18.48 207.74-19.84Q210.08-21.20 213.00-21.20L213.00-21.20Q215.92-21.20 218.24-19.84Q220.56-18.48 221.88-16.06Q223.20-13.64 223.20-10.52L223.20-10.52ZM213.00-18.76Q209.96-18.76 207.90-16.82Q205.84-14.88 205.56-11.76L205.56-11.76L220.48-11.76Q220.20-14.88 218.14-16.82Q216.08-18.76 213.00-18.76L213.00-18.76Z M269.12-28L271.56-28L271.56 0L268.72 0L268.72-22.40L257.72-3.56L256.32-3.56L245.32-22.28L245.32 0L242.48 0L242.48-28L244.92-28L257.08-7.24L269.12-28Z M288.64-21.20Q292.76-21.20 294.96-19.14Q297.16-17.08 297.16-13.04L297.16-13.04L297.16 0L294.44 0L294.44-3.28Q293.48-1.64 291.62-0.72Q289.76 0.20 287.20 0.20L287.20 0.20Q283.68 0.20 281.60-1.48Q279.52-3.16 279.52-5.92L279.52-5.92Q279.52-8.60 281.46-10.24Q283.40-11.88 287.64-11.88L287.64-11.88L294.32-11.88L294.32-13.16Q294.32-15.88 292.80-17.30Q291.28-18.72 288.36-18.72L288.36-18.72Q286.36-18.72 284.52-18.06Q282.68-17.40 281.36-16.24L281.36-16.24L280.08-18.36Q281.68-19.72 283.92-20.46Q286.16-21.20 288.64-21.20L288.64-21.20ZM287.64-2.04Q290.04-2.04 291.76-3.14Q293.48-4.24 294.32-6.32L294.32-6.32L294.32-9.76L287.72-9.76Q282.32-9.76 282.32-6L282.32-6Q282.32-4.16 283.72-3.10Q285.12-2.04 287.64-2.04L287.64-2.04Z M316.16-3.32L317.16-1.28Q316.36-0.56 315.18-0.18Q314.00 0.20 312.72 0.20L312.72 0.20Q309.76 0.20 308.16-1.40Q306.56-3 306.56-5.92L306.56-5.92L306.56-18.64L302.80-18.64L302.80-21.04L306.56-21.04L306.56-25.64L309.40-25.64L309.40-21.04L315.80-21.04L315.80-18.64L309.40-18.64L309.40-6.08Q309.40-4.20 310.34-3.22Q311.28-2.24 313.04-2.24L313.04-2.24Q313.92-2.24 314.74-2.52Q315.56-2.80 316.16-3.32L316.16-3.32Z M333.04-3.32L334.04-1.28Q333.24-0.56 332.06-0.18Q330.88 0.20 329.60 0.20L329.60 0.20Q326.64 0.20 325.04-1.40Q323.44-3 323.44-5.92L323.44-5.92L323.44-18.64L319.68-18.64L319.68-21.04L323.44-21.04L323.44-25.64L326.28-25.64L326.28-21.04L332.68-21.04L332.68-18.64L326.28-18.64L326.28-6.08Q326.28-4.20 327.22-3.22Q328.16-2.24 329.92-2.24L329.92-2.24Q330.80-2.24 331.62-2.52Q332.44-2.80 333.04-3.32L333.04-3.32Z M358.00-10.52L357.96-9.64L340.36-9.64Q340.60-6.36 342.88-4.34Q345.16-2.32 348.64-2.32L348.64-2.32Q350.60-2.32 352.24-3.02Q353.88-3.72 355.08-5.08L355.08-5.08L356.68-3.24Q355.28-1.56 353.18-0.68Q351.08 0.20 348.56 0.20L348.56 0.20Q345.32 0.20 342.82-1.18Q340.32-2.56 338.92-5Q337.52-7.44 337.52-10.52L337.52-10.52Q337.52-13.60 338.86-16.04Q340.20-18.48 342.54-19.84Q344.88-21.20 347.80-21.20L347.80-21.20Q350.72-21.20 353.04-19.84Q355.36-18.48 356.68-16.06Q358.00-13.64 358.00-10.52L358.00-10.52ZM347.80-18.76Q344.76-18.76 342.70-16.82Q340.64-14.88 340.36-11.76L340.36-11.76L355.28-11.76Q355.00-14.88 352.94-16.82Q350.88-18.76 347.80-18.76L347.80-18.76Z M367.72-16.92Q368.72-19.04 370.70-20.12Q372.68-21.20 375.60-21.20L375.60-21.20L375.60-18.44L374.92-18.48Q371.60-18.48 369.72-16.44Q367.84-14.40 367.84-10.72L367.84-10.72L367.84 0L365.00 0L365.00-21.04L367.72-21.04L367.72-16.92Z M387.72 0.20Q385.16 0.20 382.82-0.54Q380.48-1.28 379.16-2.40L379.16-2.40L380.44-4.64Q381.76-3.60 383.76-2.94Q385.76-2.28 387.92-2.28L387.92-2.28Q390.80-2.28 392.18-3.18Q393.56-4.08 393.56-5.72L393.56-5.72Q393.56-6.88 392.80-7.54Q392.04-8.20 390.88-8.54Q389.72-8.88 387.80-9.20L387.80-9.20Q385.24-9.68 383.68-10.18Q382.12-10.68 381.02-11.88Q379.92-13.08 379.92-15.20L379.92-15.20Q379.92-17.84 382.12-19.52Q384.32-21.20 388.24-21.20L388.24-21.20Q390.28-21.20 392.32-20.66Q394.36-20.12 395.68-19.24L395.68-19.24L394.44-16.96Q391.84-18.76 388.24-18.76L388.24-18.76Q385.52-18.76 384.14-17.80Q382.76-16.84 382.76-15.28L382.76-15.28Q382.76-14.08 383.54-13.36Q384.32-12.64 385.48-12.30Q386.64-11.96 388.68-11.60L388.68-11.60Q391.20-11.12 392.72-10.64Q394.24-10.16 395.32-9Q396.40-7.84 396.40-5.80L396.40-5.80Q396.40-3.04 394.10-1.42Q391.80 0.20 387.72 0.20L387.72 0.20Z M441.76-28L444.20-28L444.20 0L441.36 0L441.36-22.40L430.36-3.56L428.96-3.56L417.96-22.28L417.96 0L415.12 0L415.12-28L417.56-28L429.72-7.24L441.76-28Z M462.52 0.20Q459.48 0.20 457.04-1.18Q454.60-2.56 453.20-5Q451.80-7.44 451.80-10.52L451.80-10.52Q451.80-13.60 453.20-16.04Q454.60-18.48 457.04-19.84Q459.48-21.20 462.52-21.20L462.52-21.20Q465.56-21.20 468.00-19.84Q470.44-18.48 471.82-16.04Q473.20-13.60 473.20-10.52L473.20-10.52Q473.20-7.44 471.82-5Q470.44-2.56 468.00-1.18Q465.56 0.20 462.52 0.20L462.52 0.20ZM462.52-2.32Q464.76-2.32 466.54-3.34Q468.32-4.36 469.32-6.24Q470.32-8.12 470.32-10.52L470.32-10.52Q470.32-12.92 469.32-14.80Q468.32-16.68 466.54-17.70Q464.76-18.72 462.52-18.72L462.52-18.72Q460.28-18.72 458.50-17.70Q456.72-16.68 455.70-14.80Q454.68-12.92 454.68-10.52L454.68-10.52Q454.68-8.12 455.70-6.24Q456.72-4.36 458.50-3.34Q460.28-2.32 462.52-2.32L462.52-2.32Z M485.84 0.20Q483.28 0.20 480.94-0.54Q478.60-1.28 477.28-2.40L477.28-2.40L478.56-4.64Q479.88-3.60 481.88-2.94Q483.88-2.28 486.04-2.28L486.04-2.28Q488.92-2.28 490.30-3.18Q491.68-4.08 491.68-5.72L491.68-5.72Q491.68-6.88 490.92-7.54Q490.16-8.20 489.00-8.54Q487.84-8.88 485.92-9.20L485.92-9.20Q483.36-9.68 481.80-10.18Q480.24-10.68 479.14-11.88Q478.04-13.08 478.04-15.20L478.04-15.20Q478.04-17.84 480.24-19.52Q482.44-21.20 486.36-21.20L486.36-21.20Q488.40-21.20 490.44-20.66Q492.48-20.12 493.80-19.24L493.80-19.24L492.56-16.96Q489.96-18.76 486.36-18.76L486.36-18.76Q483.64-18.76 482.26-17.80Q480.88-16.84 480.88-15.28L480.88-15.28Q480.88-14.08 481.66-13.36Q482.44-12.64 483.60-12.30Q484.76-11.96 486.80-11.60L486.80-11.60Q489.32-11.12 490.84-10.64Q492.36-10.16 493.44-9Q494.52-7.84 494.52-5.80L494.52-5.80Q494.52-3.04 492.22-1.42Q489.92 0.20 485.84 0.20L485.84 0.20Z M511.04-3.32L512.04-1.28Q511.24-0.56 510.06-0.18Q508.88 0.20 507.60 0.20L507.60 0.20Q504.64 0.20 503.04-1.40Q501.44-3 501.44-5.92L501.44-5.92L501.44-18.64L497.68-18.64L497.68-21.04L501.44-21.04L501.44-25.64L504.28-25.64L504.28-21.04L510.68-21.04L510.68-18.64L504.28-18.64L504.28-6.08Q504.28-4.20 505.22-3.22Q506.16-2.24 507.92-2.24L507.92-2.24Q508.80-2.24 509.62-2.52Q510.44-2.80 511.04-3.32L511.04-3.32Z"/></g>
</svg>
</g></svg></svg>