<svg version="1.1" preserveAspectRatio="none" xmlns="http://www.w3.org/2000/svg" width="500" height="500" viewBox="0 0 500 500"><rect width="100%" height="100%" fill="#005F40" fill-opacity="1"/><svg viewBox="-5.9719 145.4916 520.39 315.023" width="333" height="201.58469417167896" x="83.5px" y="149.2077px" xmlns="http://www.w3.org/2000/svg" xmlns:xlink="http://www.w3.org/1999/xlink" preserveAspectRatio="none"><defs></defs><style>.companyName {fill:#EDEDED;fill-opacity:1;}.icon1 {fill:#EDEDED;fill-opacity:1;}.icon2 {fill:#163D26;fill-opacity:1;}.icon3 {fill:#9C9C9C;fill-opacity:1;}.icon3-str {stroke:#9C9C9C;stroke-opacity:1;}.text {fill:#EDEDED;fill-opacity:1;}</style><g opacity="1" transform="rotate(0 -5.9719 432.5146)">
<svg width="520.39" height="28" x="-5.9719" y="432.5146" version="1.1" preserveAspectRatio="none" viewBox="0.04 -29.68 556 29.92">
  <g transform="matrix(1 0 0 1 0 0)" class="text"><path id="id-6izo4zJp23" d="M25.36-28L14.16-9.68L14.16 0L11.24 0L11.24-9.68L0.04-28L3.20-28L12.80-12.28L22.40-28L25.36-28Z M38.76 0.20Q35.72 0.20 33.28-1.18Q30.84-2.56 29.44-5Q28.04-7.44 28.04-10.52L28.04-10.52Q28.04-13.60 29.44-16.04Q30.84-18.48 33.28-19.84Q35.72-21.20 38.76-21.20L38.76-21.20Q41.80-21.20 44.24-19.84Q46.68-18.48 48.06-16.04Q49.44-13.60 49.44-10.52L49.44-10.52Q49.44-7.44 48.06-5Q46.68-2.56 44.24-1.18Q41.80 0.20 38.76 0.20L38.76 0.20ZM38.76-2.32Q41-2.32 42.78-3.34Q44.56-4.36 45.56-6.24Q46.56-8.12 46.56-10.52L46.56-10.52Q46.56-12.92 45.56-14.80Q44.56-16.68 42.78-17.70Q41-18.72 38.76-18.72L38.76-18.72Q36.52-18.72 34.74-17.70Q32.96-16.68 31.94-14.80Q30.92-12.92 30.92-10.52L30.92-10.52Q30.92-8.12 31.94-6.24Q32.96-4.36 34.74-3.34Q36.52-2.32 38.76-2.32L38.76-2.32Z M74.56-21.04L77.40-21.04L77.40 0L74.68 0L74.68-3.84Q73.56-1.92 71.60-0.86Q69.64 0.20 67.12 0.20L67.12 0.20Q63 0.20 60.62-2.10Q58.24-4.40 58.24-8.84L58.24-8.84L58.24-21.04L61.08-21.04L61.08-9.12Q61.08-5.80 62.72-4.08Q64.36-2.36 67.40-2.36L67.40-2.36Q70.72-2.36 72.64-4.38Q74.56-6.40 74.56-10L74.56-10L74.56-21.04Z M91.28-16.92Q92.28-19.04 94.26-20.12Q96.24-21.20 99.16-21.20L99.16-21.20L99.16-18.44L98.48-18.48Q95.16-18.48 93.28-16.44Q91.40-14.40 91.40-10.72L91.40-10.72L91.40 0L88.56 0L88.56-21.04L91.28-21.04L91.28-16.92Z M129.80 0.24Q126.68 0.24 123.82-0.76Q120.96-1.76 119.40-3.40L119.40-3.40L120.56-5.68Q122.08-4.16 124.60-3.22Q127.12-2.28 129.80-2.28L129.80-2.28Q133.56-2.28 135.44-3.66Q137.32-5.04 137.32-7.24L137.32-7.24Q137.32-8.92 136.30-9.92Q135.28-10.92 133.80-11.46Q132.32-12 129.68-12.64L129.68-12.64Q126.52-13.44 124.64-14.18Q122.76-14.92 121.42-16.44Q120.08-17.96 120.08-20.56L120.08-20.56Q120.08-22.68 121.20-24.42Q122.32-26.16 124.64-27.20Q126.96-28.24 130.40-28.24L130.40-28.24Q132.80-28.24 135.10-27.58Q137.40-26.92 139.08-25.76L139.08-25.76L138.08-23.40Q136.32-24.56 134.32-25.14Q132.32-25.72 130.40-25.72L130.40-25.72Q126.72-25.72 124.86-24.30Q123.00-22.88 123.00-20.64L123.00-20.64Q123.00-18.96 124.02-17.94Q125.04-16.92 126.58-16.38Q128.12-15.84 130.72-15.20L130.72-15.20Q133.80-14.44 135.70-13.70Q137.60-12.96 138.92-11.46Q140.24-9.96 140.24-7.40L140.24-7.40Q140.24-5.28 139.10-3.54Q137.96-1.80 135.60-0.78Q133.24 0.24 129.80 0.24L129.80 0.24Z M175.52-21.20Q179.48-21.20 181.74-18.92Q184.00-16.64 184.00-12.20L184.00-12.20L184.00 0L181.16 0L181.16-11.92Q181.16-15.20 179.58-16.92Q178.00-18.64 175.12-18.64L175.12-18.64Q171.84-18.64 169.96-16.62Q168.08-14.60 168.08-11.04L168.08-11.04L168.08 0L165.24 0L165.24-11.92Q165.24-15.20 163.66-16.92Q162.08-18.64 159.16-18.64L159.16-18.64Q155.92-18.64 154.02-16.62Q152.12-14.60 152.12-11.04L152.12-11.04L152.12 0L149.28 0L149.28-21.04L152.00-21.04L152.00-17.20Q153.12-19.12 155.12-20.16Q157.12-21.20 159.72-21.20L159.72-21.20Q162.36-21.20 164.30-20.08Q166.24-18.96 167.20-16.76L167.20-16.76Q168.36-18.84 170.54-20.02Q172.72-21.20 175.52-21.20L175.52-21.20Z M194.92 0L194.92-21.04L197.76-21.04L197.76 0L194.92 0ZM196.36-25.64Q195.48-25.64 194.88-26.24Q194.28-26.84 194.28-27.68L194.28-27.68Q194.28-28.48 194.88-29.08Q195.48-29.68 196.36-29.68L196.36-29.68Q197.24-29.68 197.84-29.10Q198.44-28.52 198.44-27.72L198.44-27.72Q198.44-26.84 197.84-26.24Q197.24-25.64 196.36-25.64L196.36-25.64Z M208.88 0L208.88-29.68L211.72-29.68L211.72 0L208.88 0Z M241.20-10.52L241.16-9.64L223.56-9.64Q223.80-6.36 226.08-4.34Q228.36-2.32 231.84-2.32L231.84-2.32Q233.80-2.32 235.44-3.02Q237.08-3.72 238.28-5.08L238.28-5.08L239.88-3.24Q238.48-1.56 236.38-0.68Q234.28 0.20 231.76 0.20L231.76 0.20Q228.52 0.20 226.02-1.18Q223.52-2.56 222.12-5Q220.72-7.44 220.72-10.52L220.72-10.52Q220.72-13.60 222.06-16.04Q223.40-18.48 225.74-19.84Q228.08-21.20 231.00-21.20L231.00-21.20Q233.92-21.20 236.24-19.84Q238.56-18.48 239.88-16.06Q241.20-13.64 241.20-10.52L241.20-10.52ZM231.00-18.76Q227.96-18.76 225.90-16.82Q223.84-14.88 223.56-11.76L223.56-11.76L238.48-11.76Q238.20-14.88 236.14-16.82Q234.08-18.76 231.00-18.76L231.00-18.76Z M291.12-28L293.56-28L293.56 0L290.72 0L290.72-22.40L279.72-3.56L278.32-3.56L267.32-22.28L267.32 0L264.48 0L264.48-28L266.92-28L279.08-7.24L291.12-28Z M312.64-21.20Q316.76-21.20 318.96-19.14Q321.16-17.08 321.16-13.04L321.16-13.04L321.16 0L318.44 0L318.44-3.28Q317.48-1.64 315.62-0.72Q313.76 0.20 311.20 0.20L311.20 0.20Q307.68 0.20 305.60-1.48Q303.52-3.16 303.52-5.92L303.52-5.92Q303.52-8.60 305.46-10.24Q307.40-11.88 311.64-11.88L311.64-11.88L318.32-11.88L318.32-13.16Q318.32-15.88 316.80-17.30Q315.28-18.72 312.36-18.72L312.36-18.72Q310.36-18.72 308.52-18.06Q306.68-17.40 305.36-16.24L305.36-16.24L304.08-18.36Q305.68-19.72 307.92-20.46Q310.16-21.20 312.64-21.20L312.64-21.20ZM311.64-2.04Q314.04-2.04 315.76-3.14Q317.48-4.24 318.32-6.32L318.32-6.32L318.32-9.76L311.72-9.76Q306.32-9.76 306.32-6L306.32-6Q306.32-4.16 307.72-3.10Q309.12-2.04 311.64-2.04L311.64-2.04Z M342.16-3.32L343.16-1.28Q342.36-0.56 341.18-0.18Q340.00 0.20 338.72 0.20L338.72 0.20Q335.76 0.20 334.16-1.40Q332.56-3 332.56-5.92L332.56-5.92L332.56-18.64L328.80-18.64L328.80-21.04L332.56-21.04L332.56-25.64L335.40-25.64L335.40-21.04L341.80-21.04L341.80-18.64L335.40-18.64L335.40-6.08Q335.40-4.20 336.34-3.22Q337.28-2.24 339.04-2.24L339.04-2.24Q339.92-2.24 340.74-2.52Q341.56-2.80 342.16-3.32L342.16-3.32Z M361.04-3.32L362.04-1.28Q361.24-0.56 360.06-0.18Q358.88 0.20 357.60 0.20L357.60 0.20Q354.64 0.20 353.04-1.40Q351.44-3 351.44-5.92L351.44-5.92L351.44-18.64L347.68-18.64L347.68-21.04L351.44-21.04L351.44-25.64L354.28-25.64L354.28-21.04L360.68-21.04L360.68-18.64L354.28-18.64L354.28-6.08Q354.28-4.20 355.22-3.22Q356.16-2.24 357.92-2.24L357.92-2.24Q358.80-2.24 359.62-2.52Q360.44-2.80 361.04-3.32L361.04-3.32Z M388.00-10.52L387.96-9.64L370.36-9.64Q370.60-6.36 372.88-4.34Q375.16-2.32 378.64-2.32L378.64-2.32Q380.60-2.32 382.24-3.02Q383.88-3.72 385.08-5.08L385.08-5.08L386.68-3.24Q385.28-1.56 383.18-0.68Q381.08 0.20 378.56 0.20L378.56 0.20Q375.32 0.20 372.82-1.18Q370.32-2.56 368.92-5Q367.52-7.44 367.52-10.52L367.52-10.52Q367.52-13.60 368.86-16.04Q370.20-18.48 372.54-19.84Q374.88-21.20 377.80-21.20L377.80-21.20Q380.72-21.20 383.04-19.84Q385.36-18.48 386.68-16.06Q388.00-13.64 388.00-10.52L388.00-10.52ZM377.80-18.76Q374.76-18.76 372.70-16.82Q370.64-14.88 370.36-11.76L370.36-11.76L385.28-11.76Q385.00-14.88 382.94-16.82Q380.88-18.76 377.80-18.76L377.80-18.76Z M399.72-16.92Q400.72-19.04 402.70-20.12Q404.68-21.20 407.60-21.20L407.60-21.20L407.60-18.44L406.92-18.48Q403.60-18.48 401.72-16.44Q399.84-14.40 399.84-10.72L399.84-10.72L399.84 0L397.00 0L397.00-21.04L399.72-21.04L399.72-16.92Z M421.72 0.20Q419.16 0.20 416.82-0.54Q414.48-1.28 413.16-2.40L413.16-2.40L414.44-4.64Q415.76-3.60 417.76-2.94Q419.76-2.28 421.92-2.28L421.92-2.28Q424.80-2.28 426.18-3.18Q427.56-4.08 427.56-5.72L427.56-5.72Q427.56-6.88 426.80-7.54Q426.04-8.20 424.88-8.54Q423.72-8.88 421.80-9.20L421.80-9.20Q419.24-9.68 417.68-10.18Q416.12-10.68 415.02-11.88Q413.92-13.08 413.92-15.20L413.92-15.20Q413.92-17.84 416.12-19.52Q418.32-21.20 422.24-21.20L422.24-21.20Q424.28-21.20 426.32-20.66Q428.36-20.12 429.68-19.24L429.68-19.24L428.44-16.96Q425.84-18.76 422.24-18.76L422.24-18.76Q419.52-18.76 418.14-17.80Q416.76-16.84 416.76-15.28L416.76-15.28Q416.76-14.08 417.54-13.36Q418.32-12.64 419.48-12.30Q420.64-11.96 422.68-11.60L422.68-11.60Q425.20-11.12 426.72-10.64Q428.24-10.16 429.32-9Q430.40-7.84 430.40-5.80L430.40-5.80Q430.40-3.04 428.10-1.42Q425.80 0.20 421.72 0.20L421.72 0.20Z M479.76-28L482.20-28L482.20 0L479.36 0L479.36-22.40L468.36-3.56L466.96-3.56L455.96-22.28L455.96 0L453.12 0L453.12-28L455.56-28L467.72-7.24L479.76-28Z M502.52 0.20Q499.48 0.20 497.04-1.18Q494.60-2.56 493.20-5Q491.80-7.44 491.80-10.52L491.80-10.52Q491.80-13.60 493.20-16.04Q494.60-18.48 497.04-19.84Q499.48-21.20 502.52-21.20L502.52-21.20Q505.56-21.20 508.00-19.84Q510.44-18.48 511.82-16.04Q513.20-13.60 513.20-10.52L513.20-10.52Q513.20-7.44 511.82-5Q510.44-2.56 508.00-1.18Q505.56 0.20 502.52 0.20L502.52 0.20ZM502.52-2.32Q504.76-2.32 506.54-3.34Q508.32-4.36 509.32-6.24Q510.32-8.12 510.32-10.52L510.32-10.52Q510.32-12.92 509.32-14.80Q508.32-16.68 506.54-17.70Q504.76-18.72 502.52-18.72L502.52-18.72Q500.28-18.72 498.50-17.70Q496.72-16.68 495.70-14.80Q494.68-12.92 494.68-10.52L494.68-10.52Q494.68-8.12 495.70-6.24Q496.72-4.36 498.50-3.34Q500.28-2.32 502.52-2.32L502.52-2.32Z M527.84 0.20Q525.28 0.20 522.94-0.54Q520.60-1.28 519.28-2.40L519.28-2.40L520.56-4.64Q521.88-3.60 523.88-2.94Q525.88-2.28 528.04-2.28L528.04-2.28Q530.92-2.28 532.30-3.18Q533.68-4.08 533.68-5.72L533.68-5.72Q533.68-6.88 532.92-7.54Q532.16-8.20 531-8.54Q529.84-8.88 527.92-9.20L527.92-9.20Q525.36-9.68 523.80-10.18Q522.24-10.68 521.14-11.88Q520.04-13.08 520.04-15.20L520.04-15.20Q520.04-17.84 522.24-19.52Q524.44-21.20 528.36-21.20L528.36-21.20Q530.40-21.20 532.44-20.66Q534.48-20.12 535.80-19.24L535.80-19.24L534.56-16.96Q531.96-18.76 528.36-18.76L528.36-18.76Q525.64-18.76 524.26-17.80Q522.88-16.84 522.88-15.28L522.88-15.28Q522.88-14.08 523.66-13.36Q524.44-12.64 525.60-12.30Q526.76-11.96 528.80-11.60L528.80-11.60Q531.32-11.12 532.84-10.64Q534.36-10.16 535.44-9Q536.52-7.84 536.52-5.80L536.52-5.80Q536.52-3.04 534.22-1.42Q531.92 0.20 527.84 0.20L527.84 0.20Z M555.04-3.32L556.04-1.28Q555.24-0.56 554.06-0.18Q552.88 0.20 551.60 0.20L551.60 0.20Q548.64 0.20 547.04-1.40Q545.44-3 545.44-5.92L545.44-5.92L545.44-18.64L541.68-18.64L541.68-21.04L545.44-21.04L545.44-25.64L548.28-25.64L548.28-21.04L554.68-21.04L554.68-18.64L548.28-18.64L548.28-6.08Q548.28-4.20 549.22-3.22Q550.16-2.24 551.92-2.24L551.92-2.24Q552.80-2.24 553.62-2.52Q554.44-2.80 555.04-3.32L555.04-3.32Z"/></g>
</svg>
</g><g opacity="1" transform="rotate(0 76.5665 337.5146)">
<svg width="355.3132" height="70" x="76.5665" y="337.5146" version="1.1" preserveAspectRatio="none" viewBox="1.64 -32.8 168.72 33.24">
  <g transform="matrix(1 0 0 1 0 0)" class="companyName"><path id="id-D6z1nYkh10" d="M10.80 0.44Q6.32 0.44 4.08-2.02Q1.84-4.48 1.64-9.64L1.64-9.64L7.32-10.60Q7.40-7.52 8.18-6.06Q8.96-4.60 10.52-4.60L10.52-4.60Q11.68-4.60 12.20-5.34Q12.72-6.08 12.72-7.24L12.72-7.24Q12.72-9.16 11.86-10.50Q11-11.84 9.16-13.44L9.16-13.44L5.80-16.36Q3.80-18.04 2.74-19.96Q1.68-21.88 1.68-24.56L1.68-24.56Q1.68-28.52 4.02-30.66Q6.36-32.80 10.48-32.80L10.48-32.80Q14.88-32.80 16.60-30.26Q18.32-27.72 18.56-23.80L18.56-23.80L12.84-22.96Q12.76-25.52 12.26-26.74Q11.76-27.96 10.28-27.96L10.28-27.96Q9.20-27.96 8.60-27.14Q8-26.32 8-25.20L8-25.20Q8-23.60 8.70-22.50Q9.40-21.40 10.92-20.08L10.92-20.08L14.20-17.20Q16.52-15.16 17.84-12.90Q19.16-10.64 19.16-7.60L19.16-7.60Q19.16-5.28 18.12-3.46Q17.08-1.64 15.18-0.60Q13.28 0.44 10.80 0.44L10.80 0.44Z M22.28 0L22.28-23.12L28.16-23.12L28.16-21.20Q30.48-23.56 33.60-23.56L33.60-23.56Q34.96-23.56 35.98-22.86Q37-22.16 37.52-20.76L37.52-20.76Q40-23.56 43.40-23.56L43.40-23.56Q45.40-23.56 46.58-22.10Q47.76-20.64 47.76-18L47.76-18L47.76 0L41.92 0L41.92-17.40Q41.92-18.52 41.54-18.98Q41.16-19.44 40.40-19.44L40.40-19.44Q39.88-19.44 39.22-19.16Q38.56-18.88 37.96-18.36L37.96-18.36L37.96-18L37.96 0L32.12 0L32.12-17.40Q32.12-18.52 31.74-18.98Q31.36-19.44 30.60-19.44L30.60-19.44Q30.08-19.44 29.42-19.16Q28.76-18.88 28.16-18.36L28.16-18.36L28.16 0L22.28 0Z M51.80-26.92L51.80-31.44L57.88-31.44L57.88-26.92L51.80-26.92ZM51.84 0L51.84-23.12L57.88-23.12L57.88 0L51.84 0Z M62.36 0L62.36-32.40L68.36-32.40L68.36 0L62.36 0Z M79.92 0.40Q76.12 0.40 74.14-1.68Q72.16-3.76 72.16-7.68L72.16-7.68L72.16-15.44Q72.16-19.36 74.16-21.44Q76.16-23.52 79.92-23.52L79.92-23.52Q83.80-23.52 85.60-21.44Q87.40-19.36 87.40-15.28L87.40-15.28L87.40-11.24L78.16-11.24L78.16-6.76Q78.16-5.28 78.62-4.60Q79.08-3.92 79.96-3.92L79.96-3.92Q81.76-3.92 81.76-6.52L81.76-6.52L81.76-8.76L87.36-8.76L87.36-6.76Q87.36-3.28 85.44-1.44Q83.52 0.40 79.92 0.40L79.92 0.40ZM78.16-14.12L81.76-14.12L81.76-16.36Q81.76-17.88 81.32-18.54Q80.88-19.20 79.92-19.20L79.92-19.20Q79-19.20 78.58-18.48Q78.16-17.76 78.16-15.92L78.16-15.92L78.16-14.12Z M101.36 0L101.36-32.40L107.92-32.40L107.92-4.48L115.56-4.48L115.56 0L101.36 0Z M122.96 0.40Q121.36 0.40 120.16-0.40Q118.96-1.20 118.34-2.50Q117.72-3.80 117.72-5.20L117.72-5.20Q117.72-7.88 119.04-9.60Q120.36-11.32 122.22-12.28Q124.08-13.24 127.16-14.36L127.16-14.36L127.16-16.52Q127.16-17.76 126.82-18.40Q126.48-19.04 125.60-19.04L125.60-19.04Q124.72-19.04 124.36-18.48Q124.00-17.92 123.92-16.88L123.92-16.88L123.80-15.28L118.12-15.52Q118.28-19.64 120.24-21.58Q122.20-23.52 126.12-23.52L126.12-23.52Q129.52-23.52 131.24-21.64Q132.96-19.76 132.96-16.48L132.96-16.48L132.96-5.72Q132.96-3 133.36 0L133.36 0L127.96 0Q127.80-1.16 127.44-3.32L127.44-3.32Q126.96-1.72 125.82-0.66Q124.68 0.40 122.96 0.40L122.96 0.40ZM125.12-3.88Q125.72-3.88 126.26-4.28Q126.80-4.68 127.16-5.20L127.16-5.20L127.16-11.56Q125.28-10.48 124.28-9.32Q123.28-8.16 123.28-6.48L123.28-6.48Q123.28-5.24 123.76-4.56Q124.24-3.88 125.12-3.88L125.12-3.88Z M147.72 0.40Q145.40 0.40 143-1.72L143-1.72L143 0L136.96 0L136.96-32.40L143-32.40L143-21.40Q145.32-23.52 147.92-23.52L147.92-23.52Q150.52-23.52 151.72-21.42Q152.92-19.32 152.92-16.28L152.92-16.28L152.92-7.24Q152.92-3.80 151.60-1.70Q150.28 0.40 147.72 0.40L147.72 0.40ZM145.08-3.64Q146.08-3.64 146.48-4.54Q146.88-5.44 146.88-7L146.88-7L146.88-16.68Q146.88-19.72 145.12-19.72L145.12-19.72Q144.08-19.72 143-18.84L143-18.84L143-4.36Q144-3.64 145.08-3.64L145.08-3.64Z M163.40 0.40Q160.40 0.40 158.44-1.06Q156.48-2.52 155.44-5.56L155.44-5.56L159.68-7.32Q160.88-3.76 163.08-3.76L163.08-3.76Q163.92-3.76 164.34-4.14Q164.76-4.52 164.76-5.20L164.76-5.20Q164.76-6.12 164.18-6.84Q163.60-7.56 161.88-9.04L161.88-9.04L159.72-10.88Q157.80-12.52 156.88-13.92Q155.96-15.32 155.96-17.28L155.96-17.28Q155.96-19.12 156.88-20.54Q157.80-21.96 159.38-22.74Q160.96-23.52 162.84-23.52L162.84-23.52Q165.64-23.52 167.46-21.94Q169.28-20.36 169.96-17.52L169.96-17.52L166.04-15.76Q165.68-17.20 164.88-18.22Q164.08-19.24 163-19.24L163-19.24Q162.28-19.24 161.84-18.82Q161.40-18.40 161.40-17.72L161.40-17.72Q161.40-17.04 162.08-16.26Q162.76-15.48 164.20-14.24L164.20-14.24L166.36-12.32Q168.24-10.72 169.30-9.24Q170.36-7.76 170.36-5.80L170.36-5.80Q170.36-3.88 169.42-2.48Q168.48-1.08 166.88-0.34Q165.28 0.40 163.40 0.40L163.40 0.40Z"/></g>
</svg>
</g><g opacity="1" transform="rotate(0 183.1604 145.4916)">
<svg width="142.1253" height="152.023" x="183.1604" y="145.4916" version="1.1" preserveAspectRatio="none" viewBox="27.056621551513672 22 145.8433837890625 156">
  <g transform="matrix(1 0 0 1 0 0)"><g><path d="M76.4 178c-12 0-25.1-2.3-36.1-9.8-9.7-6.7-13-14.3-13.1-14.6 0-.1-.1-.2 0-.3l5-19.1c2.6-9.8 2.1-20.2-1.4-30.1-7.1-20.1-3.9-44.7 7.9-61.3C45.4 33.3 58.1 22 80.3 22c45.1 0 54.9 35.8 56.8 46.8.3 1.8.4 3.5.4 4.8.2 8.1 5.1 22 5.2 22.2.1.3 0 .5-.3.6s-.5 0-.6-.3c-.2-.6-5-14.2-5.2-22.5 0-1.3-.1-3-.4-4.7-1.9-10.8-11.5-46-55.9-46C63 23 48.9 30 39.5 43.3c-11.6 16.3-14.7 40.6-7.7 60.4 3.5 10.1 4 20.7 1.4 30.7l-5 18.9c1.1 2.3 15.1 29.8 64.1 22.4l8.2-21.4c.1-.3.4-.4.6-.3.3.1.4.4.3.6L93 176.3c-.1.2-.2.3-.4.3-4.8.8-10.4 1.4-16.2 1.4z" data-color="1" class="icon1"></path><path d="M78.3 143.2c-.2 0-.4-.1-.5-.3C66 117.7 60.6 98.8 60.5 98.6c-.1-.3.1-.5.3-.6.3-.1.5.1.6.3.1.2 5.5 19 17.2 44.2.1.3 0 .5-.3.7z" data-color="1" class="icon1"></path><path d="M98.2 102.6c-.1 0-.3-.1-.4-.2-.2-.2-21.8-23.2-26.4-27.3-2.5-2.3-9.2-5.3-13.6-3.1-3.3 1.7-4.6 6.1-3.9 12.7.7 6.8 2.7 11.1 5.8 12.6 3.5 1.7 7.3-.5 7.3-.6.2-.1.5-.1.7.2.1.2.1.5-.2.7-.2.1-4.3 2.6-8.3.6-3.5-1.7-5.6-6.2-6.4-13.4-.8-7.2.7-11.8 4.5-13.7 4.6-2.3 11.6.4 14.7 3.2 4.6 4.1 26.2 27.2 26.4 27.4s.2.5 0 .7c.1.1 0 .2-.2.2z" data-color="1" class="icon1"></path><path d="M145 99.3a2.6 2.6 0 1 1-5.2 0 2.6 2.6 0 0 1 5.2 0z" data-color="2" class="icon2"></path><path d="M145 113.3a2.6 2.6 0 1 1-5.2 0 2.6 2.6 0 0 1 5.2 0z" data-color="2" class="icon2"></path><path d="M142.4 124.7c-1.4 0-2.6 1.2-2.6 2.6s1.1 2.5 2.5 2.6c.5-1.6 1-3.3 1.4-4.9-.4-.2-.9-.3-1.3-.3z" data-color="2" class="icon2"></path><path d="M121.4 102c1.4 0 2.6-1.2 2.6-2.6v-.1c-1.8.2-3.5.4-5.2.6.2 1.1 1.3 2.1 2.6 2.1z" data-color="2" class="icon2"></path><path d="M134.5 106.3a2.6 2.6 0 1 1-5.2 0 2.6 2.6 0 0 1 5.2 0z" data-color="2" class="icon2"></path><path d="M124 113.3a2.6 2.6 0 1 1-5.2 0 2.6 2.6 0 0 1 5.2 0z" data-color="2" class="icon2"></path><path d="M134.5 120.3a2.6 2.6 0 1 1-5.2 0 2.6 2.6 0 0 1 5.2 0z" data-color="2" class="icon2"></path><path d="M124 127.3a2.6 2.6 0 1 1-5.2 0 2.6 2.6 0 0 1 5.2 0z" data-color="2" class="icon2"></path><path d="M134.5 134.3a2.6 2.6 0 1 1-5.2 0 2.6 2.6 0 0 1 5.2 0z" data-color="2" class="icon2"></path><path d="M124 141.3a2.6 2.6 0 1 1-5.2 0 2.6 2.6 0 0 1 5.2 0z" data-color="2" class="icon2"></path><path d="M131.9 145.6c-1.4 0-2.6 1.2-2.6 2.6 0 1.1.6 2 1.5 2.4 1.1-1.3 2.2-2.6 3.1-4-.5-.6-1.2-1-2-1z" data-color="2" class="icon2"></path><path d="M121.4 152.6c-1.4 0-2.6 1.2-2.6 2.6 0 .2 0 .4.1.6 2.1-.1 3.9-.3 5.2-.5v-.1c-.1-1.4-1.3-2.6-2.7-2.6z" data-color="2" class="icon2"></path><path d="M113.5 106.3a2.6 2.6 0 1 1-5.2 0 2.6 2.6 0 0 1 5.2 0z" data-color="2" class="icon2"></path><path d="M103 113.3a2.6 2.6 0 1 1-5.2 0 2.6 2.6 0 0 1 5.2 0z" data-color="2" class="icon2"></path><path d="M113.5 120.3a2.6 2.6 0 1 1-5.2 0 2.6 2.6 0 0 1 5.2 0z" data-color="2" class="icon2"></path><path d="M103 127.3a2.6 2.6 0 1 1-5.2 0 2.6 2.6 0 0 1 5.2 0z" data-color="2" class="icon2"></path><path d="M113.5 134.3a2.6 2.6 0 1 1-5.2 0 2.6 2.6 0 0 1 5.2 0z" data-color="2" class="icon2"></path><path d="M103 141.3a2.6 2.6 0 1 1-5.2 0 2.6 2.6 0 0 1 5.2 0z" data-color="2" class="icon2"></path><path d="M113.5 148.2a2.6 2.6 0 1 1-5.2 0 2.6 2.6 0 0 1 5.2 0z" data-color="2" class="icon2"></path><path d="M100.4 152.6c-1 0-1.9.6-2.3 1.4 1.7.4 3.3.7 4.9.9-.1-1.2-1.2-2.3-2.6-2.3z" data-color="2" class="icon2"></path><path d="M92.6 134.3a2.6 2.6 0 1 1-5.2 0 2.6 2.6 0 0 1 5.2 0z" data-color="2" class="icon2"></path><path d="M82.1 141.3c0-1-.5-1.8-1.3-2.2-.8.9-1.5 1.7-2.2 2.4-.5.5-.8 1.2-.9 1.8.5.4 1.1.7 1.7.7 1.5-.1 2.7-1.3 2.7-2.7z" data-color="2" class="icon2"></path><path d="M92.6 148.2a2.6 2.6 0 1 1-5.2 0 2.6 2.6 0 0 1 5.2 0z" data-color="2" class="icon2"></path><path d="M112.4 171c-14.2 0-31.1-5.4-50.4-16-1-.5-1.3-1.8-.8-2.7.5-1 1.8-1.3 2.7-.8 29.7 16.4 53.1 19.8 69.3 10.2 10.6-6.3 18.2-18.1 22.5-35 3.6-14 3.9-27.7 3.9-33 0-1.1.9-2 2-2s2 .9 2 2c.1 12.7-1.7 55.6-28.3 71.4-6.7 3.9-14.3 5.9-22.9 5.9z" data-color="2" class="icon2"></path><path d="M150 102.8l2 2 9.5-10.1 9.3 10.2 2.1-1.9-11.3-12.4-11.6 12.2z" data-color="2" class="icon2"></path><path d="M76.5 147.5l.8 2.7-13.4 3.5 4.5 13-2.7.9-5.4-15.9 16.2-4.2z" data-color="2" class="icon2"></path><path d="M114.8 156.3c-9.2 0-22.3-1.7-35.5-9.2-1.1-.6-1.8-1.7-2-2.9s.2-2.4 1-3.3c5.1-5.5 17.1-20 18.4-36.7.2-2 1.8-3.5 3.7-3.6 7.7-.4 27.2-1.8 42-5.1 1.2-.3 2.4 0 3.4.8.9.8 1.5 1.9 1.5 3.1.1 11-1.6 38.3-19.6 55-.6.5-1.3.9-2 1-2.1.4-5.9.9-10.9.9zm-14.2-54.6c-1.5.1-2.7 1.2-2.8 2.7-1.3 17-13.5 31.7-18.7 37.3-.6.7-.9 1.6-.8 2.5s.7 1.7 1.5 2.2c20.6 11.7 41.7 8.9 45.7 8.2.6-.1 1.1-.4 1.5-.7 17.7-16.5 19.4-43.5 19.3-54.3 0-.9-.4-1.8-1.1-2.3-.7-.6-1.6-.8-2.5-.6-14.9 3.2-34.4 4.5-42.1 5z" data-color="1" class="icon1"></path></g></g>
</svg>
</g></svg></svg>